<svg xmlns="http://www.w3.org/2000/svg" xmlns:xlink="http://www.w3.org/1999/xlink" viewBox="0 0 154.5 154.5" height="154.5" width="154.5" data-background-color="#ffffff" preserveAspectRatio="xMidYMid meet" id="tight-bounds"><g><rect width="154.5" height="154.5" fill="url(#86c1bc53-3bd3-4e88-baea-669bb1d9b837)" mask="url(#a047f814-94d5-486b-bf40-116fa76da04d)" data-fill-palette-color="tertiary"/><svg/><mask id="a047f814-94d5-486b-bf40-116fa76da04d"><svg xmlns:xlink="http://www.w3.org/1999/xlink" viewBox="0 0 154.5 154.5" height="154.5" width="154.5" data-background-color="#ffffff" preserveAspectRatio="xMidYMid meet" id="SvgjsSvg3262"><g><svg/></g><g><svg viewBox="0 0 154.5 154.5" height="154.5" width="154.5"><g transform="matrix(1,0,0,1,53.6470968,58.758412940450945)"><svg viewBox="0 0 47.2058064 36.98317411909811" height="36.98317411909811" width="47.2058064"><g><svg viewBox="0 0 47.2058064 36.98317411909811" height="36.98317411909811" width="47.2058064"><g><svg viewBox="0 0 47.2058064 36.98317411909811" height="36.98317411909811" width="47.2058064"><g id="SvgjsG3261"><svg viewBox="0 0 47.2058064 36.98317411909811" height="36.98317411909811" width="47.2058064" id="SvgjsSvg3260"><g><svg viewBox="0 0 47.2058064 36.98317411909811" height="36.98317411909811" width="47.2058064"><g><svg viewBox="0 0 47.2058064 36.98317411909811" height="36.98317411909811" width="47.2058064"><g><svg xmlns="http://www.w3.org/2000/svg" xml:space="preserve" viewBox="20.82082176208496 29.202816009521484 57.18034362792969 44.79767990112305" x="0" y="0" height="36.98317411909811" width="47.2058064" class="icon-icon-0" data-fill-palette-color="accent" id="SvgjsSvg3259"><path d="M73.885 67.882c-0.561 0-1.107-0.23-1.5-0.657L62.042 56.006 51.361 66.922a2.04 2.04 0 0 1-1.455 0.613h-0.004c-0.546 0-1.068-0.22-1.453-0.608L37.641 55.954 27.252 67.225a2.04 2.04 0 0 1-3.537-1.286l-1.224-26.106a2.042 2.042 0 0 1 3.491-1.526l11.562 11.737 10.775-11.688a2.04 2.04 0 0 1 3 0L62.13 50.083l11.52-11.772a2.039 2.039 0 0 1 3.494 1.522L75.92 65.939a2.036 2.036 0 0 1-2.035 1.943m-33.476-14.93l9.489 9.632 9.376-9.581-9.456-10.257z m-13.594-7.988l0.746 15.907 7.215-7.826z m38.083 8.122l7.177 7.785 0.745-15.88z" fill="black"/><path d="M73.885 67.882H25.752a2.04 2.04 0 0 1 0-4.079h48.132a2.04 2.04 0 0 1 0.001 4.079M50.876 34.245a1.226 1.226 0 0 1-1.73 0l-1.478-1.478a1.226 1.226 0 0 1 0-1.73l1.478-1.477a1.226 1.226 0 0 1 1.73 0l1.478 1.477a1.226 1.226 0 0 1 0 1.73zM76.165 34.245a1.226 1.226 0 0 1-1.73 0l-1.478-1.478a1.226 1.226 0 0 1 0-1.73l1.478-1.477a1.226 1.226 0 0 1 1.73 0l1.479 1.477a1.226 1.226 0 0 1 0 1.73zM24.386 35.23a1.226 1.226 0 0 1-1.73 0l-1.478-1.477a1.226 1.226 0 0 1 0-1.73l1.478-1.477a1.225 1.225 0 0 1 1.73 0l1.477 1.478a1.226 1.226 0 0 1 0 1.73zM73.885 74H26.568a2.04 2.04 0 1 1 0-4.079h47.316A2.04 2.04 0 0 1 73.885 74" fill="black"/></svg></g></svg></g></svg></g></svg></g></svg></g><g/></svg></g></svg></g><g><path xmlns="http://www.w3.org/2000/svg" d="M0 154.5v-154.5h154.5v154.5zM151.165 151.165v-147.83h-147.83v147.83z" fill="white" fill-rule="nonzero" stroke="none" stroke-width="1" stroke-linecap="butt" stroke-linejoin="miter" stroke-miterlimit="10" stroke-dasharray="" stroke-dashoffset="0" font-family="none" font-weight="none" font-size="none" text-anchor="none" style="mix-blend-mode: normal"/></g></svg></g><defs><mask/></defs></svg></mask><linearGradient x1="0.054" x2="0.941" y1="0.5" y2="0.5" id="86c1bc53-3bd3-4e88-baea-669bb1d9b837"><stop stop-color="#0f3054" offset="0"/><stop stop-color="#3b8dcb" offset="0.498"/><stop stop-color="#0f3054" offset="1"/></linearGradient></g><g><svg viewBox="0 0 154.5 154.5" height="154.5" width="154.5"><g transform="matrix(1,0,0,1,53.6470968,58.758412940450945)"><svg viewBox="0 0 47.2058064 36.98317411909811" height="36.98317411909811" width="47.2058064"><g><svg viewBox="0 0 47.2058064 36.98317411909811" height="36.98317411909811" width="47.2058064"><g><svg viewBox="0 0 47.2058064 36.98317411909811" height="36.98317411909811" width="47.2058064"><g id="textblocktransform"><svg viewBox="0 0 47.2058064 36.98317411909811" height="36.98317411909811" width="47.2058064" id="textblock"><g><svg viewBox="0 0 47.2058064 36.98317411909811" height="36.98317411909811" width="47.2058064"><g><svg viewBox="0 0 47.2058064 36.98317411909811" height="36.98317411909811" width="47.2058064"><g><svg xmlns="http://www.w3.org/2000/svg" xml:space="preserve" viewBox="20.82082176208496 29.202816009521484 57.18034362792969 44.79767990112305" x="0" y="0" height="36.98317411909811" width="47.2058064" class="icon-icon-0" data-fill-palette-color="accent" id="icon-0"><path d="M73.885 67.882c-0.561 0-1.107-0.23-1.5-0.657L62.042 56.006 51.361 66.922a2.04 2.04 0 0 1-1.455 0.613h-0.004c-0.546 0-1.068-0.22-1.453-0.608L37.641 55.954 27.252 67.225a2.04 2.04 0 0 1-3.537-1.286l-1.224-26.106a2.042 2.042 0 0 1 3.491-1.526l11.562 11.737 10.775-11.688a2.04 2.04 0 0 1 3 0L62.13 50.083l11.52-11.772a2.039 2.039 0 0 1 3.494 1.522L75.92 65.939a2.036 2.036 0 0 1-2.035 1.943m-33.476-14.93l9.489 9.632 9.376-9.581-9.456-10.257z m-13.594-7.988l0.746 15.907 7.215-7.826z m38.083 8.122l7.177 7.785 0.745-15.88z" fill="#001f3f" data-fill-palette-color="accent"/><path d="M73.885 67.882H25.752a2.04 2.04 0 0 1 0-4.079h48.132a2.04 2.04 0 0 1 0.001 4.079M50.876 34.245a1.226 1.226 0 0 1-1.73 0l-1.478-1.478a1.226 1.226 0 0 1 0-1.73l1.478-1.477a1.226 1.226 0 0 1 1.73 0l1.478 1.477a1.226 1.226 0 0 1 0 1.73zM76.165 34.245a1.226 1.226 0 0 1-1.73 0l-1.478-1.478a1.226 1.226 0 0 1 0-1.73l1.478-1.477a1.226 1.226 0 0 1 1.73 0l1.479 1.477a1.226 1.226 0 0 1 0 1.73zM24.386 35.23a1.226 1.226 0 0 1-1.73 0l-1.478-1.477a1.226 1.226 0 0 1 0-1.73l1.478-1.477a1.225 1.225 0 0 1 1.73 0l1.477 1.478a1.226 1.226 0 0 1 0 1.73zM73.885 74H26.568a2.04 2.04 0 1 1 0-4.079h47.316A2.04 2.04 0 0 1 73.885 74" fill="#001f3f" data-fill-palette-color="accent"/></svg></g></svg></g></svg></g></svg></g></svg></g><g/></svg></g></svg></g><g><path xmlns="http://www.w3.org/2000/svg" d="M0 154.5v-154.5h154.5v154.5zM151.165 151.165v-147.83h-147.83v147.83z" fill="url(#86c1bc53-3bd3-4e88-baea-669bb1d9b837)" fill-rule="nonzero" stroke="none" stroke-width="1" stroke-linecap="butt" stroke-linejoin="miter" stroke-miterlimit="10" stroke-dasharray="" stroke-dashoffset="0" font-family="none" font-weight="none" font-size="none" text-anchor="none" style="mix-blend-mode: normal" data-fill-palette-color="tertiary"/></g></svg></g><defs><mask/></defs></svg>